# xmcd
# 
# Track frame offsets:
#     182
#     30112
#     59730
#     88742
#     100012
#     136587
# 
# Disc length: 2270
# 
# Revision: 2
# Processed by: cddbd v1.5.2PL0 Copyright (c) Steve Scherf et al.
# Submitted via: BonkEnc v1.0.8
# 
DISCID=4008dc06
DTITLE=Robben Ford - Schizophonic
DYEAR=1976
DGENRE=Fusion
TTITLE0=Miss Miles
TTITLE1=Ladies' Choice
TTITLE2=Hawk's Theme
TTITLE3=Low Ride
TTITLE4=Stella And Frenchie
TTITLE5=Softly Rolling
EXTD=1976 - Avenue Jazz
EXTT0=
EXTT1=
EXTT2=
EXTT3=
EXTT4=
EXTT5=
PLAYORDER=
